<svg version="1.2" xmlns="http://www.w3.org/2000/svg" viewBox="0 0 512 512" width="512" height="512">
	<style>
		.s0 { fill: #ec0045 } 
		.s1 { fill: #ec0046 } 
		.s2 { fill: #ed0047 } 
	</style>
	<path class="s0" d="m323.43 291.3c4.99-8.44 9.95-16.52 14.22-24.94 1.6-3.17 1.53-7.16 2.4-10.73 0.34-1.41 1.18-2.69 1.76-4.05 0.43-1 1.12-2.04 1.13-3.06 0.1-7.64 0.06-15.28 0.06-23.23-1.36-0.11-2.46-0.2-3.57-0.29-7.83-0.68-15.71-1-23.44-2.24-2.37-0.38-4.75-2.93-6.41-5.05-5.1-6.46-9.87-13.17-14.73-19.82-3.6-4.93-7.21-9.86-10.63-14.92-0.8-1.19-1.16-2.9-1.17-4.38-0.09-11.64-0.05-23.29-0.05-35.27-7.72-2.1-15.19-4.93-22.9-6.03-7.35-1.04-15.01-0.8-22.44-0.17-5.92 0.5-11.73 2.41-17.57 3.76-2.38 0.56-4.7 1.77-7.09 1.88-5.77 0.28-9.24 5.1-14.25 6.68-1.95 0.61-4.14 0.47-6.52 0.69-0.99-9.07-1.94-17.68-2.92-26.55 55.78-21.72 105.24-15.3 147.4 27.23 5.14-2.53 10.67-4.97 15.93-7.91 4.08-2.28 7.69-5.41 11.74-7.76 9.1-5.27 18.33-10.3 27.51-15.42 3.43-1.92 5.81-0.71 6.09 3.1 0.43 5.88 3.07 8.83 8.61 9.55 1.56 4.47-0.69 6.91-4.54 8.57-0.8 0.35-1.51 0.93-2.22 1.46-9.3 6.88-18.69 13.65-27.87 20.7-5.38 4.14-10.47 8.69-15.58 13.18-0.53 0.47-0.67 1.97-0.36 2.74 1.37 3.41 3.19 6.65 4.44 10.1 1.7 4.68 3.35 9.41 4.48 14.25 3.73 15.98 1.97 32.26 1.83 48.4-0.06 6.59-1.89 13.45-4.23 19.69-3.57 9.52-7.4 19.17-12.74 27.76-7.31 11.73-16.18 22.53-27.83 30.46-6.98 4.75-14.23 9.15-21.56 13.33-1.17 0.67-3.97-0.02-5.12-1.06-4.36-3.96-8.39-8.28-12.46-12.55-2.35-2.46-1.87-6.51 1.15-7.25 11.03-2.72 18.98-10.22 27.14-17.24 4.5-3.88 8.03-8.89 12.31-13.61zm5.56-106.76c-4.44-6.1-8.35-12.7-13.48-18.16-5-5.32-11.25-9.47-17.51-14.6 0 6.39-0.04 11.72 0.04 17.05 0.01 1.04 0.2 2.3 0.8 3.08 7.29 9.57 15.16 18.74 21.87 28.69 4.56 6.77 10.39 6.7 17.61 6.19-1.01-8.33-5.44-14.77-9.33-22.25z"/>
	<path class="s0" d="m344.98 341.02c0 3.16-0.22 5.85 0.04 8.49 0.94 9.8-1.12 19.45-4.54 28.16-2.14 5.47-5.26 12.85-13.72 13.41-3.88 0.25-7.69 1.5-11.57 1.86-6.73 0.63-12.82-1.86-18.57-4.91-8.18-4.34-16.17-8.87-22.7-15.83-5.06-5.39-11.63-9.38-16.64-14.82-6.01-6.53-11.08-13.94-16.57-20.95-3.76-4.81-7.85-9.4-11.27-14.44-6.05-8.93-11.86-18.04-17.47-27.26-4.7-7.72-8.98-15.71-13.46-23.57-3.44-6.03-8.28-11.66-10.02-18.14-2.01-7.47-6.81-13.31-9.17-20.39-2.4-7.2-4.52-14.54-7.49-21.51-2.72-6.39-4.8-12.76-6.09-19.64-1.18-6.28-4.46-12.15-6.53-18.29-1.03-3.06-1.62-6.3-2.1-9.51-1.14-7.49-2.24-14.99-3.07-22.52-0.85-7.65-1.83-15.35-1.89-23.03-0.05-6.28 0.44-12.76 2.05-18.8 1.49-5.58 3.98-11.31 7.55-15.77 2.54-3.17 5.92-6.74 11.42-6.84 3-0.06 5.61-3.28 9.55-1.82 7.66 2.84 16.24 3.11 23.15 8.07 5.93 4.25 11.98 8.39 17.49 13.13 1.6 1.38 1.55 4.68 2.15 6.77-8.03 1.81-15.75 2.58-22.62 5.42-5.24 2.17-8.12 1.21-12-2.11-2.36-2.02-6.11-2.42-10.38-3.96-0.54 9.05-1.46 17.27-1.38 25.48 0.06 7.47 0.82 15 2.04 22.37 0.64 3.87 2.94 7.45 4.42 11.18 0.3 0.74 0.28 1.6 0.4 2.41 1.13 7.62 2.5 15.09 5.72 22.28 2.54 5.68 3.21 12.17 5.46 18.01 2.83 7.35 6.55 14.34 9.67 21.59 1.93 4.5 3.24 9.28 5.24 13.76 1.53 3.44 3.86 6.52 5.52 9.92 2.61 5.37 4.88 10.92 7.49 16.3 0.52 1.08 2.18 1.59 2.79 2.65 5.13 8.9 10.01 17.95 15.25 26.78 1.82 3.07 4.46 5.65 6.65 8.51 8.11 10.57 15.69 21.6 24.46 31.58 6.08 6.93 13.63 12.65 20.85 18.5 5.28 4.27 11.08 7.9 16.72 11.72 0.87 0.6 2.11 0.66 4.2 1.27 0.71-4.68 2.35-9.04 1.8-13.11-0.97-7.15 2.72-11.18 7.57-14.99 4.09-3.21 8.11-6.53 12.3-9.61 1.25-0.92 3.39-2.06 4.35-1.58 1.36 0.69 2.57 2.71 2.82 4.31 0.44 2.93 0.13 5.98 0.13 9.47z"/>
	<path class="s1" d="m139.08 171.33c1.52-1.77 2.95-3.19 4.5-4.45 0.88-0.71 1.96-1.15 2.95-1.72 0.49 1.15 1.16 2.26 1.43 3.46 1.43 6.16 1.28 13.35 4.56 18.23 3.09 4.6 2.27 8.64 2.27 12.89 0 2.85-2.02 5.66-2.82 8.57-0.59 2.17-0.5 4.53-1.02 6.73-0.5 2.07-1.39 4.05-2.15 6.05-0.09 0.25-0.61 0.44-0.6 0.63 0.75 8.67-2.21 17.47 1.52 26.1 1.5 3.48 1.34 7.65 2.28 11.42 0.9 3.58 2.25 7.04 3.41 10.55 3.06 9.22 8.74 17.02 14.72 24.35 5.32 6.51 12.01 11.94 18.31 17.61 2.44 2.19 5.35 3.96 8.28 5.47 6.52 3.35 12.95 7.16 19.88 9.33 4.42 1.39 7.06 3.68 9.57 7.11 4.9 6.69 10.06 13.2 15.09 19.77-4.17 3.51-11.85 3.48-16.05 0.41-0.83-0.61-2.15-0.84-3.22-0.79-5.3 0.24-10.04-1.25-14.68-3.77-2.24-1.22-4.98-1.49-7.48-2.24-11.19-3.37-21.03-9.12-29.76-16.85-4.3-3.81-8.59-7.65-13.18-11.06-1.04-0.78-3.64-0.41-5 0.35-6.53 3.67-12.88 7.64-19.28 11.54-2.78 1.7-5.5 3.51-8.27 5.23q-5.19 3.22-10.41 6.37c-4.2 2.54-8.4 5.09-12.67 7.52-1.06 0.6-2.39 0.73-3.34 1.01-1.1-3.82-2.09-7.24-3.11-10.77-1.6-0.31-3.42-0.19-4.68-0.97-3.08-1.92-2.76-5.94 0.32-8.25 5.18-3.86 10.3-7.79 15.43-11.71q8.06-6.18 16.11-12.37c3.86-2.97 7.68-6 11.61-8.87 1.58-1.16 3.4-1.99 4.77-2.78-1.75-5.17-2.52-11.27-5.67-15.64-3.5-4.87-2.73-10.99-6.38-15.45-0.18-0.23-0.21-0.63-0.23-0.95-0.69-15.67-2.16-31.37-1.73-47.01 0.23-8.45 3.18-16.98 5.87-25.17 2.21-6.73 5.83-13 8.85-19.88z"/>
	<path class="s2" d="m461.94 98.1c-4.38 3.16-8.77 5.77-12.9 8.74-8.19 5.88-16.07 12.23-24.43 17.86-6.56 4.42-15.58-1.01-15.61-8.98-0.01-2.32 0-4.65 0-6.26 10.65-6.37 20.82-12.57 31.12-18.53 3.37-1.96 7.17-3.15 10.63-4.96 4.07-2.14 7.94-4.68 12-6.85 5.88-3.14 11.94-5.98 17.79-9.19 4.21-2.3 8.02-5.39 12.35-7.39 3.14-1.45 6.82-1.92 10.32-2.26 0.86-0.09 2.21 1.91 2.8 3.2 0.25 0.54-0.72 1.97-1.47 2.56-7.39 5.8-14.79 11.59-22.33 17.2-6.63 4.94-13.43 9.65-20.27 14.86z"/>
	<path class="s2" d="m17.07 399.38c-1.54 0.58-2.82 1.14-4.07 1.08-1.92-0.09-3.82-0.62-5.73-0.97 0.53-2.29 0.29-5.46 1.72-6.74 6.33-5.63 13.18-10.69 19.79-16.02 5.79-4.67 11.36-9.62 17.3-14.08 5.59-4.2 11.59-7.83 17.3-11.87 3.29-2.33 6.24-5.17 9.59-7.4 1.4-0.93 4.61-1.67 5.02-1.09 2.09 2.96 7.89 0.94 8.05 6.22 0.07 2.1 1.13 4.25 0.85 6.25-0.48 3.43-1.23 6.55-5.92 7.49-3 0.6-5.41 3.76-8.26 5.46-7.96 4.75-15.69 10.08-24.11 13.81-11.03 4.89-20.62 12.12-31.53 17.86z"/>
</svg>